<?xml version="1.0" encoding="UTF-8"?>
<!DOCTYPE svg PUBLIC "-//W3C//DTD SVG 1.1//EN" "http://www.w3.org/Graphics/SVG/1.1/DTD/svg11.dtd">
<svg xmlns="http://www.w3.org/2000/svg" version="1.1" width="128px" height="128px" style="shape-rendering:geometricPrecision; text-rendering:geometricPrecision; image-rendering:optimizeQuality; fill-rule:evenodd; clip-rule:evenodd" xmlns:xlink="http://www.w3.org/1999/xlink">
<g><path style="opacity:0.129" fill="#db583f" d="M 17.5,54.5 C 17.5,54.8333 17.5,55.1667 17.5,55.5C 13.3133,51.9939 8.64662,51.4939 3.5,54C 2.28891,55.1131 2.28891,56.2798 3.5,57.5C 4.60164,58.1757 5.60164,58.8423 6.5,59.5C 4.83333,59.5 3.16667,59.5 1.5,59.5C 0.538078,57.547 0.204745,55.7137 0.5,54C 4.95333,51.7594 9.62,50.7594 14.5,51C 16.4257,51.4224 17.4257,52.5891 17.5,54.5 Z"/></g>
<g><path style="opacity:0.102" fill="#d8523a" d="M 36.5,50.5 C 37.1667,50.5 37.8333,50.5 38.5,50.5C 36.8377,53.1266 35.171,55.7933 33.5,58.5C 33.9024,60.3002 34.5691,61.9668 35.5,63.5C 33.2054,62.8645 31.5387,61.5311 30.5,59.5C 31.7017,57.6075 33.035,55.7742 34.5,54C 33.646,52.9783 32.646,52.1449 31.5,51.5C 29.5414,52.7481 28.0414,54.4148 27,56.5C 26.5065,54.8659 26.3398,53.1992 26.5,51.5C 24.4357,51.687 22.4357,52.187 20.5,53C 21.448,53.4828 22.448,53.6495 23.5,53.5C 23.5,55.8333 23.5,58.1667 23.5,60.5C 21.901,60.2322 20.5676,60.5655 19.5,61.5C 18.2719,62.3065 17.2719,63.3065 16.5,64.5C 16.1583,63.6618 15.4916,63.3284 14.5,63.5C 16.9844,61.4548 17.9844,58.7882 17.5,55.5C 17.5,55.1667 17.5,54.8333 17.5,54.5C 20.2813,50.1734 23.7813,49.5068 28,52.5C 29.493,48.9422 31.6597,48.6088 34.5,51.5C 35.1835,51.1373 35.8501,50.8039 36.5,50.5 Z M 18.5,56.5 C 22.2965,57.9114 22.2965,58.9114 18.5,59.5C 18.5,58.5 18.5,57.5 18.5,56.5 Z"/></g>
<g><path style="opacity:1" fill="#fbca41" d="M 17.5,55.5 C 17.9844,58.7882 16.9844,61.4548 14.5,63.5C 13.8333,63.8333 13.1667,64.1667 12.5,64.5C 11.1667,64.5 9.83333,64.5 8.5,64.5C 7.46253,63.0697 6.79586,61.403 6.5,59.5C 5.60164,58.8423 4.60164,58.1757 3.5,57.5C 2.28891,56.2798 2.28891,55.1131 3.5,54C 8.64662,51.4939 13.3133,51.9939 17.5,55.5 Z"/></g>
<g><path style="opacity:0.514" fill="#dc523b" d="M 56.5,55.5 C 55.8333,55.5 55.1667,55.5 54.5,55.5C 54.5,53.8333 54.5,52.1667 54.5,50.5C 50.3363,50.7723 48.503,53.1056 49,57.5C 48.5065,55.8659 48.3398,54.1992 48.5,52.5C 47.1667,52.5 45.8333,52.5 44.5,52.5C 43.4092,55.3488 43.4092,58.1821 44.5,61C 44.3613,62.301 43.6946,63.1344 42.5,63.5C 42.5,63.1667 42.5,62.8333 42.5,62.5C 43.895,61.3523 43.7284,60.3523 42,59.5C 41.2825,60.4506 40.4491,60.6172 39.5,60C 43.6251,56.5482 42.9584,54.2148 37.5,53C 39.0016,52.4169 40.3349,51.5836 41.5,50.5C 40.5754,49.4376 39.5754,49.4376 38.5,50.5C 37.8333,50.5 37.1667,50.5 36.5,50.5C 38.3454,46.1801 40.3454,45.8468 42.5,49.5C 46.5901,50.6796 50.5901,50.3463 54.5,48.5C 55.2749,50.8432 55.9416,53.1766 56.5,55.5 Z"/></g>
<g><path style="opacity:1" fill="#f6b742" d="M 42.5,62.5 C 40.283,63.3686 37.9496,63.702 35.5,63.5C 34.5691,61.9668 33.9024,60.3002 33.5,58.5C 35.171,55.7933 36.8377,53.1266 38.5,50.5C 39.5754,49.4376 40.5754,49.4376 41.5,50.5C 40.3349,51.5836 39.0016,52.4169 37.5,53C 42.9584,54.2148 43.6251,56.5482 39.5,60C 40.4491,60.6172 41.2825,60.4506 42,59.5C 43.7284,60.3523 43.895,61.3523 42.5,62.5 Z"/></g>
<g><path style="opacity:0.386" fill="#d95239" d="M 74.5,61.5 C 74.7148,63.1788 74.0481,64.1788 72.5,64.5C 73.347,60.7774 74.347,57.1108 75.5,53.5C 74.1667,53.5 72.8333,53.5 71.5,53.5C 69.6221,63.8958 68.4555,63.8958 68,53.5C 66.9887,52.6634 65.8221,52.33 64.5,52.5C 64.1667,55.8333 63.8333,59.1667 63.5,62.5C 62.6618,62.1583 62.3284,61.4916 62.5,60.5C 61.1058,56.0936 58.6058,55.4269 55,58.5C 54.5172,57.552 54.3505,56.552 54.5,55.5C 55.1667,55.5 55.8333,55.5 56.5,55.5C 58.5,55.5 60.5,55.5 62.5,55.5C 62.7745,50.6519 65.1079,49.3186 69.5,51.5C 69.3398,53.1992 69.5065,54.8659 70,56.5C 70.4421,50.9936 72.9421,49.9936 77.5,53.5C 76.8008,56.3103 75.8008,58.977 74.5,61.5 Z"/></g>
<g><path style="opacity:1" fill="#f8c347" d="M 30.5,59.5 C 29.2209,60.968 27.5542,61.6347 25.5,61.5C 25.6567,62.8734 25.49,64.2068 25,65.5C 24.3992,63.6412 23.5659,63.3079 22.5,64.5C 21.1667,64.5 20.5,63.8333 20.5,62.5C 20.5,61.8333 20.1667,61.5 19.5,61.5C 20.5676,60.5655 21.901,60.2322 23.5,60.5C 23.5,58.1667 23.5,55.8333 23.5,53.5C 22.448,53.6495 21.448,53.4828 20.5,53C 22.4357,52.187 24.4357,51.687 26.5,51.5C 26.3398,53.1992 26.5065,54.8659 27,56.5C 28.0414,54.4148 29.5414,52.7481 31.5,51.5C 32.646,52.1449 33.646,52.9783 34.5,54C 33.035,55.7742 31.7017,57.6075 30.5,59.5 Z"/></g>
<g><path style="opacity:0.767" fill="#dd6142" d="M 9.5,56.5 C 10.8333,56.5 12.1667,56.5 13.5,56.5C 12.3037,61.7572 10.9704,61.7572 9.5,56.5 Z"/></g>
<g><path style="opacity:1" fill="#fac036" d="M 54.5,55.5 C 54.3505,56.552 54.5172,57.552 55,58.5C 58.6058,55.4269 61.1058,56.0936 62.5,60.5C 60.5328,60.7394 58.6995,60.4061 57,59.5C 56.7679,60.7375 56.2679,61.7375 55.5,62.5C 54.5028,62.4701 53.8361,62.9701 53.5,64C 54.2335,65.7659 54.5668,67.5992 54.5,69.5C 53.5,69.5 52.5,69.5 51.5,69.5C 51.5,68.5 51.5,67.5 51.5,66.5C 52.8528,64.8716 52.5195,63.5383 50.5,62.5C 50.316,60.0752 49.6493,60.0752 48.5,62.5C 47.914,62.2907 47.414,61.9574 47,61.5C 46.6397,63.4211 45.8064,65.0878 44.5,66.5C 43.0815,65.9953 42.4148,64.9953 42.5,63.5C 43.6946,63.1344 44.3613,62.301 44.5,61C 43.4092,58.1821 43.4092,55.3488 44.5,52.5C 45.8333,52.5 47.1667,52.5 48.5,52.5C 48.3398,54.1992 48.5065,55.8659 49,57.5C 48.503,53.1056 50.3363,50.7723 54.5,50.5C 54.5,52.1667 54.5,53.8333 54.5,55.5 Z"/></g>
<g><path style="opacity:1" fill="#f59f1d" d="M 30.5,59.5 C 31.5387,61.5311 33.2054,62.8645 35.5,63.5C 37.14,64.7901 37.64,66.4567 37,68.5C 34.5015,66.583 31.8349,64.9164 29,63.5C 28.5172,64.448 28.3505,65.448 28.5,66.5C 28.5858,67.4959 28.2524,68.3292 27.5,69C 25.2839,68.4559 23.1172,68.6226 21,69.5C 17.918,69.2515 16.418,67.5849 16.5,64.5C 17.2719,63.3065 18.2719,62.3065 19.5,61.5C 20.1667,61.5 20.5,61.8333 20.5,62.5C 19.1328,64.0927 19.4661,65.4261 21.5,66.5C 23.1449,65.9638 23.4782,65.2971 22.5,64.5C 23.5659,63.3079 24.3992,63.6412 25,65.5C 25.49,64.2068 25.6567,62.8734 25.5,61.5C 27.5542,61.6347 29.2209,60.968 30.5,59.5 Z"/></g>
<g><path style="opacity:1" fill="#ec9128" d="M 62.5,60.5 C 62.3284,61.4916 62.6618,62.1583 63.5,62.5C 63.5,63.1667 63.8333,63.5 64.5,63.5C 62.0392,64.531 59.3725,65.1977 56.5,65.5C 56.4431,64.391 56.1098,63.391 55.5,62.5C 56.2679,61.7375 56.7679,60.7375 57,59.5C 58.6995,60.4061 60.5328,60.7394 62.5,60.5 Z"/></g>
<g><path style="opacity:1" fill="#f9c135" d="M 72.5,64.5 C 69.9039,63.7347 67.2372,63.4013 64.5,63.5C 63.8333,63.5 63.5,63.1667 63.5,62.5C 63.8333,59.1667 64.1667,55.8333 64.5,52.5C 65.8221,52.33 66.9887,52.6634 68,53.5C 68.4555,63.8958 69.6221,63.8958 71.5,53.5C 72.8333,53.5 74.1667,53.5 75.5,53.5C 74.347,57.1108 73.347,60.7774 72.5,64.5 Z"/></g>
<g><path style="opacity:0.532" fill="#566bd1" d="M 121.5,71.5 C 121.5,71.8333 121.5,72.1667 121.5,72.5C 120.833,72.5 120.5,72.1667 120.5,71.5C 117.454,70.0133 114.121,69.0133 110.5,68.5C 113.899,67.819 117.232,67.4857 120.5,67.5C 120.167,66.8333 119.833,66.1667 119.5,65.5C 115.167,64.1667 110.833,64.1667 106.5,65.5C 106.771,68.0473 107.771,70.0473 109.5,71.5C 108.194,72.4674 107.527,73.8007 107.5,75.5C 106.609,76.1098 105.609,76.4431 104.5,76.5C 106.627,73.6272 106.96,70.6272 105.5,67.5C 105.586,66.5041 105.252,65.6708 104.5,65C 101.183,64.5017 97.8499,64.335 94.5,64.5C 92.7354,63.5386 90.7354,63.2053 88.5,63.5C 88.811,62.5222 89.4777,61.8555 90.5,61.5C 95.7439,63.9768 100.911,63.9768 106,61.5C 106.667,62.1667 107.333,62.8333 108,63.5C 111.445,63.5235 114.945,63.1902 118.5,62.5C 122.501,64.5033 123.501,67.5033 121.5,71.5 Z"/></g>
<g><path style="opacity:1" fill="#f59a1c" d="M 8.5,64.5 C 9.83333,64.5 11.1667,64.5 12.5,64.5C 12.2322,66.099 12.5655,67.4324 13.5,68.5C 13.4894,70.6859 12.4894,71.5192 10.5,71C 9.60278,68.9129 8.93611,66.7463 8.5,64.5 Z"/></g>
<g><path style="opacity:0.752" fill="#cb3026" d="M 50.5,62.5 C 49.0462,64.2633 49.3796,65.5967 51.5,66.5C 51.5,67.5 51.5,68.5 51.5,69.5C 52.5,69.5 53.5,69.5 54.5,69.5C 57.5051,70.3753 57.8384,71.3753 55.5,72.5C 51.062,73.5749 49.062,71.9083 49.5,67.5C 45.8424,70.126 42.6757,69.4593 40,65.5C 38.8063,67.6234 38.1397,69.9568 38,72.5C 35.3582,70.432 32.5248,68.7653 29.5,67.5C 29.5,66.8333 29.1667,66.5 28.5,66.5C 28.3505,65.448 28.5172,64.448 29,63.5C 31.8349,64.9164 34.5015,66.583 37,68.5C 37.64,66.4567 37.14,64.7901 35.5,63.5C 37.9496,63.702 40.283,63.3686 42.5,62.5C 42.5,62.8333 42.5,63.1667 42.5,63.5C 42.4148,64.9953 43.0815,65.9953 44.5,66.5C 45.8064,65.0878 46.6397,63.4211 47,61.5C 47.414,61.9574 47.914,62.2907 48.5,62.5C 49.6493,60.0752 50.316,60.0752 50.5,62.5 Z"/></g>
<g><path style="opacity:1" fill="#77d9f0" d="M 90.5,66.5 C 90.5,67.8333 90.5,69.1667 90.5,70.5C 89.4739,71.853 88.1405,72.853 86.5,73.5C 86.5,71.5 86.5,69.5 86.5,67.5C 83.8333,67.5 81.1667,67.5 78.5,67.5C 78.5,68.5 78.5,69.5 78.5,70.5C 77.5,70.5 76.5,70.5 75.5,70.5C 75.5,68.8333 75.5,67.1667 75.5,65.5C 80.6679,63.2858 85.6679,63.6191 90.5,66.5 Z"/></g>
<g><path style="opacity:1" fill="#d2422d" d="M 20.5,62.5 C 20.5,63.8333 21.1667,64.5 22.5,64.5C 23.4782,65.2971 23.1449,65.9638 21.5,66.5C 19.4661,65.4261 19.1328,64.0927 20.5,62.5 Z"/></g>
<g><path style="opacity:1" fill="#72699e" d="M 50.5,62.5 C 52.5195,63.5383 52.8528,64.8716 51.5,66.5C 49.3796,65.5967 49.0462,64.2633 50.5,62.5 Z"/></g>
<g><path style="opacity:1" fill="#75d6ef" d="M 120.5,71.5 C 119.209,71.2627 118.209,71.596 117.5,72.5C 115.167,72.5 112.833,72.5 110.5,72.5C 110.5,71.8333 110.167,71.5 109.5,71.5C 107.771,70.0473 106.771,68.0473 106.5,65.5C 110.833,64.1667 115.167,64.1667 119.5,65.5C 119.833,66.1667 120.167,66.8333 120.5,67.5C 117.232,67.4857 113.899,67.819 110.5,68.5C 114.121,69.0133 117.454,70.0133 120.5,71.5 Z"/></g>
<g><path style="opacity:1" fill="#7bdcf0" d="M 94.5,64.5 C 97.8499,64.335 101.183,64.5017 104.5,65C 105.252,65.6708 105.586,66.5041 105.5,67.5C 105.598,70.2476 104.598,70.9143 102.5,69.5C 102.389,68.8826 102.056,68.3826 101.5,68C 99.1902,67.5034 96.8568,67.3367 94.5,67.5C 94.5,68.5 94.5,69.5 94.5,70.5C 93.5,70.5 92.5,70.5 91.5,70.5C 91.5,68.8333 91.5,67.1667 91.5,65.5C 92.209,64.596 93.209,64.2627 94.5,64.5 Z"/></g>
<g><path style="opacity:0.511" fill="#d02b23" d="M 1.5,59.5 C 3.16667,59.5 4.83333,59.5 6.5,59.5C 6.79586,61.403 7.46253,63.0697 8.5,64.5C 8.93611,66.7463 9.60278,68.9129 10.5,71C 12.4894,71.5192 13.4894,70.6859 13.5,68.5C 14.6226,67.2426 15.2893,67.5759 15.5,69.5C 14.7976,72.5237 12.7976,74.1904 9.5,74.5C 7.93815,68.7328 5.27148,63.7328 1.5,59.5 Z"/></g>
<g><path style="opacity:1" fill="#7dd2ea" d="M 64.5,63.5 C 67.2372,63.4013 69.9039,63.7347 72.5,64.5C 73.2341,65.7079 73.5674,67.0413 73.5,68.5C 71.3537,68.1218 69.187,67.7885 67,67.5C 64.9919,67.3068 63.4919,67.9735 62.5,69.5C 62.5,70.1667 62.5,70.8333 62.5,71.5C 60.8595,72.147 59.5261,73.147 58.5,74.5C 58.5,72.5 58.5,70.5 58.5,68.5C 57.5,68.5 56.5,68.5 55.5,68.5C 55.2627,67.209 55.596,66.209 56.5,65.5C 59.3725,65.1977 62.0392,64.531 64.5,63.5 Z"/></g>
<g><path style="opacity:0.996" fill="#546bcc" d="M 86.5,73.5 C 83.8333,73.5 81.1667,73.5 78.5,73.5C 78.5,72.5 78.5,71.5 78.5,70.5C 78.5,69.5 78.5,68.5 78.5,67.5C 81.1667,67.5 83.8333,67.5 86.5,67.5C 86.5,69.5 86.5,71.5 86.5,73.5 Z M 79.5,69.5 C 81.5,69.5 83.5,69.5 85.5,69.5C 85.5,70.5 85.5,71.5 85.5,72.5C 83.5,72.5 81.5,72.5 79.5,72.5C 79.5,71.5 79.5,70.5 79.5,69.5 Z"/></g>
<g><path style="opacity:0.753" fill="#c92621" d="M 14.5,63.5 C 15.4916,63.3284 16.1583,63.6618 16.5,64.5C 16.418,67.5849 17.918,69.2515 21,69.5C 23.1172,68.6226 25.2839,68.4559 27.5,69C 28.2524,68.3292 28.5858,67.4959 28.5,66.5C 29.1667,66.5 29.5,66.8333 29.5,67.5C 29.5,68.8333 29.5,70.1667 29.5,71.5C 26.244,72.2999 23.0774,72.6332 20,72.5C 17.8171,72.4779 16.3171,71.4779 15.5,69.5C 15.2893,67.5759 14.6226,67.2426 13.5,68.5C 12.5655,67.4324 12.2322,66.099 12.5,64.5C 13.1667,64.1667 13.8333,63.8333 14.5,63.5 Z"/></g>
<g><path style="opacity:1" fill="#898bc6" d="M 73.5,68.5 C 73.5,69.1667 73.5,69.8333 73.5,70.5C 70.6122,69.9898 68.2789,70.6565 66.5,72.5C 65.8333,71.8333 65.1667,71.1667 64.5,70.5C 64.1667,70.5 63.8333,70.5 63.5,70.5C 63.5,69.8333 63.1667,69.5 62.5,69.5C 63.4919,67.9735 64.9919,67.3068 67,67.5C 69.187,67.7885 71.3537,68.1218 73.5,68.5 Z"/></g>
<g><path style="opacity:1" fill="#364dbf" d="M 62.5,69.5 C 63.1667,69.5 63.5,69.8333 63.5,70.5C 63.8333,73.1667 64.1667,73.1667 64.5,70.5C 65.1667,71.1667 65.8333,71.8333 66.5,72.5C 69.3769,73.8742 68.0436,73.5409 62.5,71.5C 62.5,70.8333 62.5,70.1667 62.5,69.5 Z"/></g>
<g><path style="opacity:0.384" fill="#5973cc" d="M 102.5,69.5 C 102.5,70.8333 102.5,72.1667 102.5,73.5C 99.8333,73.5 97.1667,73.5 94.5,73.5C 94.5,72.5 94.5,71.5 94.5,70.5C 94.5,69.5 94.5,68.5 94.5,67.5C 96.8568,67.3367 99.1902,67.5034 101.5,68C 102.056,68.3826 102.389,68.8826 102.5,69.5 Z M 95.5,69.5 C 97.5,69.5 99.5,69.5 101.5,69.5C 101.5,70.5 101.5,71.5 101.5,72.5C 99.5,72.5 97.5,72.5 95.5,72.5C 95.5,71.5 95.5,70.5 95.5,69.5 Z"/></g>
<g><path style="opacity:1" fill="#48a8ec" d="M 73.5,70.5 C 73.5,72.1667 73.5,73.8333 73.5,75.5C 67.7209,77.0554 62.0543,76.7221 56.5,74.5C 56.9698,73.537 57.6365,73.537 58.5,74.5C 59.5261,73.147 60.8595,72.147 62.5,71.5C 68.0436,73.5409 69.3769,73.8742 66.5,72.5C 68.2789,70.6565 70.6122,69.9898 73.5,70.5 Z"/></g>
<g><path style="opacity:1" fill="#39a0ef" d="M 75.5,65.5 C 75.5,67.1667 75.5,68.8333 75.5,70.5C 76.5,70.5 77.5,70.5 78.5,70.5C 78.5,71.5 78.5,72.5 78.5,73.5C 81.1667,73.5 83.8333,73.5 86.5,73.5C 88.1405,72.853 89.4739,71.853 90.5,70.5C 91.0306,73.8876 89.6973,75.8876 86.5,76.5C 82.7307,76.756 79.0641,76.4227 75.5,75.5C 74.3,72.031 74.3,68.6977 75.5,65.5 Z"/></g>
<g><path style="opacity:0.31" fill="#556bcb" d="M 74.5,61.5 C 79.3063,60.8886 83.973,61.5553 88.5,63.5C 90.7354,63.2053 92.7354,63.5386 94.5,64.5C 93.209,64.2627 92.209,64.596 91.5,65.5C 90.8333,65.5 90.5,65.8333 90.5,66.5C 85.6679,63.6191 80.6679,63.2858 75.5,65.5C 74.3,68.6977 74.3,72.031 75.5,75.5C 74.8333,75.5 74.1667,75.5 73.5,75.5C 73.5,73.8333 73.5,72.1667 73.5,70.5C 73.5,69.8333 73.5,69.1667 73.5,68.5C 73.5674,67.0413 73.2341,65.7079 72.5,64.5C 74.0481,64.1788 74.7148,63.1788 74.5,61.5 Z"/></g>
<g><path style="opacity:1" fill="#40a2ed" d="M 105.5,67.5 C 106.96,70.6272 106.627,73.6272 104.5,76.5C 100.167,76.5 95.8333,76.5 91.5,76.5C 91.5,74.5 91.5,72.5 91.5,70.5C 92.5,70.5 93.5,70.5 94.5,70.5C 94.5,71.5 94.5,72.5 94.5,73.5C 97.1667,73.5 99.8333,73.5 102.5,73.5C 102.5,72.1667 102.5,70.8333 102.5,69.5C 104.598,70.9143 105.598,70.2476 105.5,67.5 Z"/></g>
<g><path style="opacity:0.125" fill="#3548a5" d="M 55.5,62.5 C 56.1098,63.391 56.4431,64.391 56.5,65.5C 55.596,66.209 55.2627,67.209 55.5,68.5C 56.5,68.5 57.5,68.5 58.5,68.5C 58.5,70.5 58.5,72.5 58.5,74.5C 57.6365,73.537 56.9698,73.537 56.5,74.5C 62.0543,76.7221 67.7209,77.0554 73.5,75.5C 74.1667,75.5 74.8333,75.5 75.5,75.5C 79.0641,76.4227 82.7307,76.756 86.5,76.5C 83.3752,77.4794 80.0419,77.8128 76.5,77.5C 75.5041,77.5858 74.6708,77.2524 74,76.5C 73.2496,77.1258 72.4162,77.6258 71.5,78C 67.1667,78.6667 62.8333,78.6667 58.5,78C 55.3344,77.0659 54.3344,75.2326 55.5,72.5C 57.8384,71.3753 57.5051,70.3753 54.5,69.5C 54.5668,67.5992 54.2335,65.7659 53.5,64C 53.8361,62.9701 54.5028,62.4701 55.5,62.5 Z"/></g>
<g><path style="opacity:0.748" fill="#273d9e" d="M 91.5,65.5 C 91.5,67.1667 91.5,68.8333 91.5,70.5C 91.5,72.5 91.5,74.5 91.5,76.5C 95.8333,76.5 100.167,76.5 104.5,76.5C 105.609,76.4431 106.609,76.1098 107.5,75.5C 113.235,78.1788 118.901,78.0121 124.5,75C 123.309,74.3021 122.309,73.4687 121.5,72.5C 121.5,72.1667 121.5,71.8333 121.5,71.5C 122.735,71.2786 123.735,70.6119 124.5,69.5C 125.647,71.7649 125.814,74.0982 125,76.5C 123.933,77.1905 122.766,77.6905 121.5,78C 106.336,78.7569 91.3364,78.5902 76.5,77.5C 80.0419,77.8128 83.3752,77.4794 86.5,76.5C 89.6973,75.8876 91.0306,73.8876 90.5,70.5C 90.5,69.1667 90.5,67.8333 90.5,66.5C 90.5,65.8333 90.8333,65.5 91.5,65.5 Z M 95.5,69.5 C 95.5,70.5 95.5,71.5 95.5,72.5C 97.5,72.5 99.5,72.5 101.5,72.5C 101.5,71.5 101.5,70.5 101.5,69.5C 99.5,69.5 97.5,69.5 95.5,69.5 Z"/></g>
<g><path style="opacity:1" fill="#419fec" d="M 109.5,71.5 C 110.167,71.5 110.5,71.8333 110.5,72.5C 111.312,73.9931 112.645,74.6598 114.5,74.5C 116.03,74.3601 117.03,73.6935 117.5,72.5C 118.209,71.596 119.209,71.2627 120.5,71.5C 120.5,72.1667 120.833,72.5 121.5,72.5C 122.309,73.4687 123.309,74.3021 124.5,75C 118.901,78.0121 113.235,78.1788 107.5,75.5C 107.527,73.8007 108.194,72.4674 109.5,71.5 Z"/></g>
<g><path style="opacity:0.91" fill="#485fc5" d="M 110.5,72.5 C 112.833,72.5 115.167,72.5 117.5,72.5C 117.03,73.6935 116.03,74.3601 114.5,74.5C 112.645,74.6598 111.312,73.9931 110.5,72.5 Z"/></g>
</svg>
